# xmcd CD database file
#
# Track frame offsets:
#	182
#	12555
#	30857
#	46222
#	69412
#	87210
#	100447
#	131002
#	147855
#	165062
#	178035
#	209367
#	226077
#	241712
#	262607
#	281365
#	296187
#
# Disc length: 4242 seconds
#
# Revision: 4
# Processed by: cddbd v1.5.2PL0 Copyright (c) Steve Scherf et al.
# Submitted via: CDex 1.77
#
DISCID=da109011
DTITLE=Dennis Hart - Silbermond
DYEAR=1900
DGENRE=New Age
TTITLE0=Silbermond
TTITLE1=Amazonas
TTITLE2=Love Potion
TTITLE3=Forever
TTITLE4=Raindrops
TTITLE5=Moonlight
TTITLE6=Morning Breeze
TTITLE7=Road to Heaven
TTITLE8=Moondust
TTITLE9=Magic Star
TTITLE10=Viva 2000
TTITLE11=Wizard
TTITLE12=Silent Drea
TTITLE13=Silex
TTITLE14=Streamline
TTITLE15=Caravan
TTITLE16=Bengale
EXTD=
EXTT0=
EXTT1=
EXTT2=
EXTT3=
EXTT4=
EXTT5=
EXTT6=
EXTT7=
EXTT8=
EXTT9=
EXTT10=
EXTT11=
EXTT12=
EXTT13=
EXTT14=
EXTT15=
EXTT16=
PLAYORDER=
